<?xml version="1.0" standalone="no"?>
<!DOCTYPE svg PUBLIC "-//W3C//DTD SVG 20010904//EN"
 "http://www.w3.org/TR/2001/REC-SVG-20010904/DTD/svg10.dtd">
<svg version="1.0" xmlns="http://www.w3.org/2000/svg"
 width="499.000000pt" height="499.000000pt" viewBox="0 0 499.000000 499.000000"
 preserveAspectRatio="xMidYMid meet">

<g transform="translate(0.000000,499.000000) scale(0.100000,-0.100000)"
fill="#000000" stroke="none">
<path d="M1265 2680 c-6 -10 108 -416 127 -453 8 -15 20 -17 65 -15 l57 3 34
110 c18 61 37 114 42 118 6 7 36 -76 76 -215 4 -15 17 -18 64 -18 l58 0 16 48
c32 100 116 400 116 415 0 14 -11 17 -59 17 -35 0 -63 -5 -69 -12 -5 -7 -21
-62 -34 -122 -12 -60 -28 -111 -34 -113 -7 -2 -20 33 -34 89 -13 51 -29 108
-36 126 -12 30 -16 32 -63 32 -27 0 -52 -4 -55 -8 -3 -5 -18 -59 -34 -121 -29
-108 -37 -129 -46 -120 -3 2 -16 55 -30 117 -14 63 -28 118 -31 123 -8 12
-122 12 -130 -1z"/>
<path d="M2556 2675 c-8 -21 -8 -428 0 -449 5 -12 21 -16 65 -16 l59 0 0 55
c0 71 15 71 58 0 l33 -55 232 2 232 3 0 45 0 45 -62 3 c-44 2 -63 7 -63 16 0
7 27 47 60 89 51 64 60 81 60 116 l0 41 -150 0 -150 0 0 -50 0 -50 65 0 c37 0
65 -4 65 -10 0 -6 -31 -49 -70 -96 -38 -47 -70 -94 -70 -105 0 -34 -17 -21
-63 49 -74 114 -74 99 -6 183 l61 74 -69 3 -68 3 -40 -45 c-22 -26 -43 -46
-47 -46 -4 0 -9 46 -10 103 l-3 102 -56 3 c-45 2 -58 0 -63 -13z"/>
<path d="M2005 2561 c-80 -36 -112 -100 -103 -202 6 -56 28 -93 78 -126 26
-18 47 -23 100 -23 109 0 170 55 178 159 5 75 -10 122 -53 160 -59 51 -132 63
-200 32z m109 -103 c18 -25 21 -100 6 -129 -7 -12 -21 -19 -40 -19 -36 0 -50
23 -50 84 0 73 51 111 84 64z"/>
<path d="M2462 2571 c-7 -4 -46 -6 -86 -3 -56 3 -74 1 -78 -9 -3 -8 -3 -89 0
-181 l5 -168 58 0 59 0 0 105 c0 100 1 107 26 131 19 20 31 24 51 19 17 -4 29
-1 34 7 13 20 11 82 -3 96 -14 14 -47 16 -66 3z"/>
<path d="M3260 2561 c0 -5 25 -81 55 -169 63 -183 66 -202 31 -202 -30 0 -45
-19 -53 -63 -5 -34 -4 -36 31 -42 70 -14 139 15 168 68 16 30 138 386 138 403
0 10 -16 14 -60 14 -69 0 -69 1 -95 -113 -25 -109 -32 -103 -75 71 l-11 42
-64 0 c-36 0 -65 -4 -65 -9z"/>
</g>
</svg>
